# xmcd CD database file
#
# Track frame offsets:
#	150
#	29772
#	59957
#	88500
#	112427
#	137320
#	162297
#
# Disc length: 2393 seconds
#
# Revision: 0
# Processed by: cddbd v1.5.2PL0 Copyright (c) Steve Scherf et al.
# Submitted via: CDex 1.70beta2
#
DISCID=66095707
DTITLE=Oscar Peterson - MY FAIR LADY
DYEAR=1958
DGENRE=Jazz
TTITLE0=I've grown accustomed to her face
TTITLE1=Get me to the church on time
TTITLE2=Show me
TTITLE3=I could have dance all night
TTITLE4=On the street where you live
TTITLE5=Wouldn't it be Loverly ?
TTITLE6=The rain in spain
EXTD=YEAR: 1958
EXTT0=
EXTT1=
EXTT2=
EXTT3=
EXTT4=
EXTT5=
EXTT6=
PLAYORDER=
